<svg xmlns="http://www.w3.org/2000/svg" width="682.667" height="682.667" preserveAspectRatio="xMidYMid meet" version="1.0" viewBox="0 0 512 512"><metadata>Created by potrace 1.14, written by Peter Selinger 2001-2017</metadata><g fill="#000" stroke="none"><path d="M393 5106 c-186 -45 -345 -207 -382 -388 -8 -38 -11 -677 -9 -2183 l3 -2130 22 -60 c67 -175 220 -306 393 -335 46 -8 684 -10 2180 -8 l2115 3 68 27 c86 35 141 73 205 143 60 66 106 156 122 240 8 44 10 633 8 2180 l-3 2120 -23 59 c-64 169 -213 300 -380 335 -82 17 -4248 14 -4319 -3z m3507 -374 c238 -43 393 -123 453 -236 48 -90 17 -396 -114 -1111 -42 -232 -218 -1115 -243 -1223 l-14 -63 21 7 c60 18 325 142 421 197 83 47 135 86 213 160 56 53 115 102 130 108 68 26 99 -20 97 -143 -3 -135 -70 -241 -242 -380 -144 -115 -288 -198 -565 -324 l-161 -73 -23 -88 c-32 -118 -162 -443 -230 -572 -141 -270 -299 -435 -518 -542 -123 -60 -235 -88 -385 -96 -390 -20 -743 125 -864 357 -68 130 -86 293 -41 388 83 179 429 368 1149 628 141 51 190 73 197 88 5 12 20 100 34 196 14 96 32 211 40 255 8 44 26 148 41 230 74 424 228 999 402 1500 38 110 73 208 77 217 5 13 -6 23 -52 46 -120 61 -185 75 -333 74 -167 -1 -338 -26 -576 -86 -238 -60 -379 -88 -409 -81 -14 3 -36 7 -50 10 -13 3 -34 15 -45 27 -119 128 291 411 741 512 172 38 252 45 504 41 177 -2 256 -7 345 -23z m-3043 -1003 c57 -28 131 -111 178 -200 21 -41 39 -76 41 -78 2 -2 29 20 60 48 76 67 197 126 304 147 158 31 399 6 519 -56 102 -51 187 -156 222 -272 20 -64 21 -86 16 -242 -6 -204 -18 -272 -103 -605 -69 -269 -84 -363 -65 -399 16 -29 59 -29 119 2 55 28 226 184 382 348 119 125 168 163 199 153 30 -9 46 -62 45 -150 -3 -184 -82 -357 -239 -523 -66 -71 -175 -138 -410 -255 -215 -107 -297 -124 -417 -91 -114 32 -190 128 -230 290 -19 76 -22 116 -21 279 0 217 10 289 79 585 54 228 64 363 31 414 -46 69 -173 86 -273 36 -164 -82 -343 -368 -430 -689 -36 -132 -31 -259 19 -451 49 -184 54 -228 32 -274 -34 -72 -150 -153 -317 -222 -64 -26 -97 -34 -147 -34 -60 0 -65 2 -101 38 -77 76 -95 217 -87 652 3 168 11 364 17 435 32 381 121 674 291 953 62 101 95 138 142 161 53 26 89 27 144 0z" transform="translate(0.000000,512.000000) scale(0.100000,-0.100000)"/><path d="M2865 1274 c-488 -164 -589 -217 -602 -312 -3 -23 -3 -52 1 -67 11 -42 76 -105 146 -140 124 -62 238 -79 336 -50 96 28 210 180 274 365 31 92 80 280 72 279 -4 0 -106 -34 -227 -75z" transform="translate(0.000000,512.000000) scale(0.100000,-0.100000)"/></g></svg>