<svg width="62" height="62" viewBox="0 0 62 62" fill="none" xmlns="http://www.w3.org/2000/svg">
<rect opacity="0.5" width="62" height="62" rx="4" fill="#C4C4C4"/>
<path d="M17.4746 34.9268H22.1914V36H16.1553V26.0469H17.4746V34.9268ZM23.1553 32.2334C23.1553 31.5088 23.2965 30.8571 23.5791 30.2783C23.8662 29.6995 24.2627 29.2529 24.7686 28.9385C25.279 28.624 25.86 28.4668 26.5117 28.4668C27.5189 28.4668 28.3324 28.8154 28.9521 29.5127C29.5765 30.21 29.8887 31.1374 29.8887 32.2949V32.3838C29.8887 33.1038 29.7497 33.751 29.4717 34.3252C29.1982 34.8949 28.804 35.3392 28.2891 35.6582C27.7786 35.9772 27.1908 36.1367 26.5254 36.1367C25.5228 36.1367 24.7093 35.7881 24.085 35.0908C23.4652 34.3936 23.1553 33.4707 23.1553 32.3223V32.2334ZM24.4268 32.3838C24.4268 33.2041 24.6159 33.8626 24.9941 34.3594C25.377 34.8561 25.8874 35.1045 26.5254 35.1045C27.168 35.1045 27.6784 34.8538 28.0566 34.3525C28.4349 33.8467 28.624 33.1403 28.624 32.2334C28.624 31.4222 28.4303 30.766 28.043 30.2646C27.6602 29.7588 27.1497 29.5059 26.5117 29.5059C25.8874 29.5059 25.3838 29.7542 25.001 30.251C24.6182 30.7477 24.4268 31.4587 24.4268 32.3838ZM31.1738 32.2402C31.1738 31.0872 31.4404 30.1712 31.9736 29.4922C32.5068 28.8086 33.2132 28.4668 34.0928 28.4668C34.9951 28.4668 35.6992 28.7858 36.2051 29.4238L36.2666 28.6035H37.4219V35.8223C37.4219 36.7793 37.137 37.5335 36.5674 38.085C36.0023 38.6364 35.2412 38.9121 34.2842 38.9121C33.751 38.9121 33.2292 38.7982 32.7188 38.5703C32.2083 38.3424 31.8187 38.0303 31.5498 37.6338L32.2061 36.875C32.7484 37.5449 33.4115 37.8799 34.1953 37.8799C34.8105 37.8799 35.2891 37.7067 35.6309 37.3604C35.9772 37.014 36.1504 36.5264 36.1504 35.8975V35.2617C35.6445 35.8451 34.9541 36.1367 34.0791 36.1367C33.2132 36.1367 32.5114 35.7881 31.9736 35.0908C31.4404 34.3936 31.1738 33.4434 31.1738 32.2402ZM32.4453 32.3838C32.4453 33.2178 32.6162 33.874 32.958 34.3525C33.2998 34.8265 33.7783 35.0635 34.3936 35.0635C35.1911 35.0635 35.7767 34.7012 36.1504 33.9766V30.5996C35.763 29.8932 35.182 29.54 34.4072 29.54C33.792 29.54 33.3112 29.7793 32.9648 30.2578C32.6185 30.7363 32.4453 31.445 32.4453 32.3838ZM39.001 32.2334C39.001 31.5088 39.1423 30.8571 39.4248 30.2783C39.7119 29.6995 40.1084 29.2529 40.6143 28.9385C41.1247 28.624 41.7057 28.4668 42.3574 28.4668C43.3646 28.4668 44.1781 28.8154 44.7979 29.5127C45.4222 30.21 45.7344 31.1374 45.7344 32.2949V32.3838C45.7344 33.1038 45.5954 33.751 45.3174 34.3252C45.0439 34.8949 44.6497 35.3392 44.1348 35.6582C43.6243 35.9772 43.0365 36.1367 42.3711 36.1367C41.3685 36.1367 40.555 35.7881 39.9307 35.0908C39.3109 34.3936 39.001 33.4707 39.001 32.3223V32.2334ZM40.2725 32.3838C40.2725 33.2041 40.4616 33.8626 40.8398 34.3594C41.2227 34.8561 41.7331 35.1045 42.3711 35.1045C43.0137 35.1045 43.5241 34.8538 43.9023 34.3525C44.2806 33.8467 44.4697 33.1403 44.4697 32.2334C44.4697 31.4222 44.276 30.766 43.8887 30.2646C43.5059 29.7588 42.9954 29.5059 42.3574 29.5059C41.7331 29.5059 41.2295 29.7542 40.8467 30.251C40.4639 30.7477 40.2725 31.4587 40.2725 32.3838Z" fill="black"/>
</svg>