<svg xmlns="http://www.w3.org/2000/svg" width="329" height="73" fill="none" viewBox="0 0 329 73"><path fill="#FF769A" d="M46.852 18.2C47.248 18.2 47.59 18.344 47.878 18.632C48.166 18.92 48.31 19.262 48.31 19.658V54.542C48.31 54.938 48.166 55.28 47.878 55.568C47.59 55.856 47.248 56 46.852 56H38.158C37.294 56 36.574 55.622 35.998 54.866L24.226 39.854V54.542C24.226 54.938 24.082 55.28 23.794 55.568C23.506 55.856 23.164 56 22.768 56H12.724C12.328 56 11.986 55.856 11.698 55.568C11.41 55.28 11.266 54.938 11.266 54.542V19.658C11.266 19.262 11.41 18.92 11.698 18.632C11.986 18.344 12.328 18.2 12.724 18.2H21.472C22.336 18.2 23.038 18.56 23.578 19.28L35.35 35.534V19.658C35.35 19.262 35.494 18.92 35.782 18.632C36.07 18.344 36.412 18.2 36.808 18.2H46.852ZM94.0809 18.2C94.4769 18.2 94.8189 18.344 95.1069 18.632C95.3949 18.92 95.5389 19.262 95.5389 19.658V27.866C95.5389 28.262 95.3949 28.604 95.1069 28.892C94.8189 29.18 94.4769 29.324 94.0809 29.324H72.8589V32.78H90.5709C90.9669 32.78 91.3089 32.924 91.5969 33.212C91.8849 33.5 92.0289 33.842 92.0289 34.238V42.392C92.0289 42.788 91.8849 43.13 91.5969 43.418C91.3089 43.706 90.9669 43.85 90.5709 43.85H72.8589V54.542C72.8589 54.938 72.7149 55.28 72.4269 55.568C72.1389 55.856 71.7969 56 71.4009 56H59.7369C59.3409 56 58.9989 55.856 58.7109 55.568C58.4229 55.28 58.2789 54.938 58.2789 54.542V19.658C58.2789 19.262 58.4229 18.92 58.7109 18.632C58.9989 18.344 59.3409 18.2 59.7369 18.2H94.0809ZM140.338 18.2C140.734 18.2 141.076 18.344 141.364 18.632C141.652 18.92 141.796 19.262 141.796 19.658V28.352C141.796 28.748 141.652 29.09 141.364 29.378C141.076 29.666 140.734 29.81 140.338 29.81H128.728V54.542C128.728 54.938 128.584 55.28 128.296 55.568C128.008 55.856 127.666 56 127.27 56H116.146C115.75 56 115.408 55.856 115.12 55.568C114.832 55.28 114.688 54.938 114.688 54.542V29.81H103.078C102.682 29.81 102.34 29.666 102.052 29.378C101.764 29.09 101.62 28.748 101.62 28.352V19.658C101.62 19.262 101.764 18.92 102.052 18.632C102.34 18.344 102.682 18.2 103.078 18.2H140.338ZM231.988 40.286C231.988 45.758 230.188 49.844 226.588 52.544C222.988 55.208 218.182 56.54 212.17 56.54C207.85 56.54 204.16 55.856 201.1 54.488C198.076 53.084 195.79 51.32 194.242 49.196C192.73 47.072 191.974 44.93 191.974 42.77C191.974 42.446 192.082 42.176 192.298 41.96C192.55 41.708 192.838 41.582 193.162 41.582H205.366C205.69 41.582 205.96 41.69 206.176 41.906C206.428 42.122 206.608 42.41 206.716 42.77C207.4 44.93 209.128 46.01 211.9 46.01C213.592 46.01 214.924 45.614 215.896 44.822C216.904 44.03 217.408 42.896 217.408 41.42V29.27H197.698C197.302 29.27 196.96 29.126 196.672 28.838C196.384 28.55 196.24 28.208 196.24 27.812V19.658C196.24 19.262 196.384 18.92 196.672 18.632C196.96 18.344 197.302 18.2 197.698 18.2H230.53C230.926 18.2 231.268 18.344 231.556 18.632C231.844 18.92 231.988 19.262 231.988 19.658V40.286ZM251.569 54.164C251.101 55.388 250.291 56 249.139 56H238.933C238.609 56 238.321 55.892 238.069 55.676C237.853 55.424 237.745 55.136 237.745 54.812L237.799 54.488L249.571 19.982C249.715 19.514 249.985 19.1 250.381 18.74C250.777 18.38 251.317 18.2 252.001 18.2H267.013C267.697 18.2 268.237 18.38 268.633 18.74C269.029 19.1 269.299 19.514 269.443 19.982L281.215 54.488L281.269 54.812C281.269 55.136 281.143 55.424 280.891 55.676C280.675 55.892 280.405 56 280.081 56H269.875C268.723 56 267.913 55.388 267.445 54.164L266.095 50.384H252.919L251.569 54.164ZM259.507 28.622L255.673 39.854H263.341L259.507 28.622ZM312.297 19.658C312.837 18.686 313.611 18.2 314.619 18.2H324.501C324.897 18.2 325.239 18.344 325.527 18.632C325.815 18.92 325.959 19.262 325.959 19.658V54.542C325.959 54.938 325.815 55.28 325.527 55.568C325.239 55.856 324.897 56 324.501 56H314.727C314.331 56 313.989 55.856 313.701 55.568C313.413 55.28 313.269 54.938 313.269 54.542V37.802L309.327 45.578C309.219 45.83 308.967 46.118 308.571 46.442C308.175 46.766 307.671 46.928 307.059 46.928H303.387C302.775 46.928 302.271 46.766 301.875 46.442C301.479 46.118 301.227 45.83 301.119 45.578L297.177 37.802V54.542C297.177 54.938 297.033 55.28 296.745 55.568C296.457 55.856 296.115 56 295.719 56H285.945C285.549 56 285.207 55.856 284.919 55.568C284.631 55.28 284.487 54.938 284.487 54.542V19.658C284.487 19.262 284.631 18.92 284.919 18.632C285.207 18.344 285.549 18.2 285.945 18.2H295.827C296.835 18.2 297.609 18.686 298.149 19.658L305.223 32.618L312.297 19.658Z"/><path fill="#DF86FF" d="M42.852 16.2C43.248 16.2 43.59 16.344 43.878 16.632C44.166 16.92 44.31 17.262 44.31 17.658V52.542C44.31 52.938 44.166 53.28 43.878 53.568C43.59 53.856 43.248 54 42.852 54H34.158C33.294 54 32.574 53.622 31.998 52.866L20.226 37.854V52.542C20.226 52.938 20.082 53.28 19.794 53.568C19.506 53.856 19.164 54 18.768 54H8.724C8.328 54 7.986 53.856 7.698 53.568C7.41 53.28 7.266 52.938 7.266 52.542V17.658C7.266 17.262 7.41 16.92 7.698 16.632C7.986 16.344 8.328 16.2 8.724 16.2H17.472C18.336 16.2 19.038 16.56 19.578 17.28L31.35 33.534V17.658C31.35 17.262 31.494 16.92 31.782 16.632C32.07 16.344 32.412 16.2 32.808 16.2H42.852ZM90.0809 16.2C90.4769 16.2 90.8189 16.344 91.1069 16.632C91.3949 16.92 91.5389 17.262 91.5389 17.658V25.866C91.5389 26.262 91.3949 26.604 91.1069 26.892C90.8189 27.18 90.4769 27.324 90.0809 27.324H68.8589V30.78H86.5709C86.9669 30.78 87.3089 30.924 87.5969 31.212C87.8849 31.5 88.0289 31.842 88.0289 32.238V40.392C88.0289 40.788 87.8849 41.13 87.5969 41.418C87.3089 41.706 86.9669 41.85 86.5709 41.85H68.8589V52.542C68.8589 52.938 68.7149 53.28 68.4269 53.568C68.1389 53.856 67.7969 54 67.4009 54H55.7369C55.3409 54 54.9989 53.856 54.7109 53.568C54.4229 53.28 54.2789 52.938 54.2789 52.542V17.658C54.2789 17.262 54.4229 16.92 54.7109 16.632C54.9989 16.344 55.3409 16.2 55.7369 16.2H90.0809ZM136.338 16.2C136.734 16.2 137.076 16.344 137.364 16.632C137.652 16.92 137.796 17.262 137.796 17.658V26.352C137.796 26.748 137.652 27.09 137.364 27.378C137.076 27.666 136.734 27.81 136.338 27.81H124.728V52.542C124.728 52.938 124.584 53.28 124.296 53.568C124.008 53.856 123.666 54 123.27 54H112.146C111.75 54 111.408 53.856 111.12 53.568C110.832 53.28 110.688 52.938 110.688 52.542V27.81H99.0778C98.6818 27.81 98.3398 27.666 98.0518 27.378C97.7638 27.09 97.6198 26.748 97.6198 26.352V17.658C97.6198 17.262 97.7638 16.92 98.0518 16.632C98.3398 16.344 98.6818 16.2 99.0778 16.2H136.338ZM227.988 38.286C227.988 43.758 226.188 47.844 222.588 50.544C218.988 53.208 214.182 54.54 208.17 54.54C203.85 54.54 200.16 53.856 197.1 52.488C194.076 51.084 191.79 49.32 190.242 47.196C188.73 45.072 187.974 42.93 187.974 40.77C187.974 40.446 188.082 40.176 188.298 39.96C188.55 39.708 188.838 39.582 189.162 39.582H201.366C201.69 39.582 201.96 39.69 202.176 39.906C202.428 40.122 202.608 40.41 202.716 40.77C203.4 42.93 205.128 44.01 207.9 44.01C209.592 44.01 210.924 43.614 211.896 42.822C212.904 42.03 213.408 40.896 213.408 39.42V27.27H193.698C193.302 27.27 192.96 27.126 192.672 26.838C192.384 26.55 192.24 26.208 192.24 25.812V17.658C192.24 17.262 192.384 16.92 192.672 16.632C192.96 16.344 193.302 16.2 193.698 16.2H226.53C226.926 16.2 227.268 16.344 227.556 16.632C227.844 16.92 227.988 17.262 227.988 17.658V38.286ZM247.569 52.164C247.101 53.388 246.291 54 245.139 54H234.933C234.609 54 234.321 53.892 234.069 53.676C233.853 53.424 233.745 53.136 233.745 52.812L233.799 52.488L245.571 17.982C245.715 17.514 245.985 17.1 246.381 16.74C246.777 16.38 247.317 16.2 248.001 16.2H263.013C263.697 16.2 264.237 16.38 264.633 16.74C265.029 17.1 265.299 17.514 265.443 17.982L277.215 52.488L277.269 52.812C277.269 53.136 277.143 53.424 276.891 53.676C276.675 53.892 276.405 54 276.081 54H265.875C264.723 54 263.913 53.388 263.445 52.164L262.095 48.384H248.919L247.569 52.164ZM255.507 26.622L251.673 37.854H259.341L255.507 26.622ZM308.297 17.658C308.837 16.686 309.611 16.2 310.619 16.2H320.501C320.897 16.2 321.239 16.344 321.527 16.632C321.815 16.92 321.959 17.262 321.959 17.658V52.542C321.959 52.938 321.815 53.28 321.527 53.568C321.239 53.856 320.897 54 320.501 54H310.727C310.331 54 309.989 53.856 309.701 53.568C309.413 53.28 309.269 52.938 309.269 52.542V35.802L305.327 43.578C305.219 43.83 304.967 44.118 304.571 44.442C304.175 44.766 303.671 44.928 303.059 44.928H299.387C298.775 44.928 298.271 44.766 297.875 44.442C297.479 44.118 297.227 43.83 297.119 43.578L293.177 35.802V52.542C293.177 52.938 293.033 53.28 292.745 53.568C292.457 53.856 292.115 54 291.719 54H281.945C281.549 54 281.207 53.856 280.919 53.568C280.631 53.28 280.487 52.938 280.487 52.542V17.658C280.487 17.262 280.631 16.92 280.919 16.632C281.207 16.344 281.549 16.2 281.945 16.2H291.827C292.835 16.2 293.609 16.686 294.149 17.658L301.223 30.618L308.297 17.658Z"/><path fill="#fff" d="M39.852 12.2C40.248 12.2 40.59 12.344 40.878 12.632C41.166 12.92 41.31 13.262 41.31 13.658V48.542C41.31 48.938 41.166 49.28 40.878 49.568C40.59 49.856 40.248 50 39.852 50H31.158C30.294 50 29.574 49.622 28.998 48.866L17.226 33.854V48.542C17.226 48.938 17.082 49.28 16.794 49.568C16.506 49.856 16.164 50 15.768 50H5.724C5.328 50 4.986 49.856 4.698 49.568C4.41 49.28 4.266 48.938 4.266 48.542V13.658C4.266 13.262 4.41 12.92 4.698 12.632C4.986 12.344 5.328 12.2 5.724 12.2H14.472C15.336 12.2 16.038 12.56 16.578 13.28L28.35 29.534V13.658C28.35 13.262 28.494 12.92 28.782 12.632C29.07 12.344 29.412 12.2 29.808 12.2H39.852ZM87.0809 12.2C87.4769 12.2 87.8189 12.344 88.1069 12.632C88.3949 12.92 88.5389 13.262 88.5389 13.658V21.866C88.5389 22.262 88.3949 22.604 88.1069 22.892C87.8189 23.18 87.4769 23.324 87.0809 23.324H65.8589V26.78H83.5709C83.9669 26.78 84.3089 26.924 84.5969 27.212C84.8849 27.5 85.0289 27.842 85.0289 28.238V36.392C85.0289 36.788 84.8849 37.13 84.5969 37.418C84.3089 37.706 83.9669 37.85 83.5709 37.85H65.8589V48.542C65.8589 48.938 65.7149 49.28 65.4269 49.568C65.1389 49.856 64.7969 50 64.4009 50H52.7369C52.3409 50 51.9989 49.856 51.7109 49.568C51.4229 49.28 51.2789 48.938 51.2789 48.542V13.658C51.2789 13.262 51.4229 12.92 51.7109 12.632C51.9989 12.344 52.3409 12.2 52.7369 12.2H87.0809ZM133.338 12.2C133.734 12.2 134.076 12.344 134.364 12.632C134.652 12.92 134.796 13.262 134.796 13.658V22.352C134.796 22.748 134.652 23.09 134.364 23.378C134.076 23.666 133.734 23.81 133.338 23.81H121.728V48.542C121.728 48.938 121.584 49.28 121.296 49.568C121.008 49.856 120.666 50 120.27 50H109.146C108.75 50 108.408 49.856 108.12 49.568C107.832 49.28 107.688 48.938 107.688 48.542V23.81H96.0778C95.6818 23.81 95.3398 23.666 95.0518 23.378C94.7638 23.09 94.6198 22.748 94.6198 22.352V13.658C94.6198 13.262 94.7638 12.92 95.0518 12.632C95.3398 12.344 95.6818 12.2 96.0778 12.2H133.338ZM224.988 34.286C224.988 39.758 223.188 43.844 219.588 46.544C215.988 49.208 211.182 50.54 205.17 50.54C200.85 50.54 197.16 49.856 194.1 48.488C191.076 47.084 188.79 45.32 187.242 43.196C185.73 41.072 184.974 38.93 184.974 36.77C184.974 36.446 185.082 36.176 185.298 35.96C185.55 35.708 185.838 35.582 186.162 35.582H198.366C198.69 35.582 198.96 35.69 199.176 35.906C199.428 36.122 199.608 36.41 199.716 36.77C200.4 38.93 202.128 40.01 204.9 40.01C206.592 40.01 207.924 39.614 208.896 38.822C209.904 38.03 210.408 36.896 210.408 35.42V23.27H190.698C190.302 23.27 189.96 23.126 189.672 22.838C189.384 22.55 189.24 22.208 189.24 21.812V13.658C189.24 13.262 189.384 12.92 189.672 12.632C189.96 12.344 190.302 12.2 190.698 12.2H223.53C223.926 12.2 224.268 12.344 224.556 12.632C224.844 12.92 224.988 13.262 224.988 13.658V34.286ZM244.569 48.164C244.101 49.388 243.291 50 242.139 50H231.933C231.609 50 231.321 49.892 231.069 49.676C230.853 49.424 230.745 49.136 230.745 48.812L230.799 48.488L242.571 13.982C242.715 13.514 242.985 13.1 243.381 12.74C243.777 12.38 244.317 12.2 245.001 12.2H260.013C260.697 12.2 261.237 12.38 261.633 12.74C262.029 13.1 262.299 13.514 262.443 13.982L274.215 48.488L274.269 48.812C274.269 49.136 274.143 49.424 273.891 49.676C273.675 49.892 273.405 50 273.081 50H262.875C261.723 50 260.913 49.388 260.445 48.164L259.095 44.384H245.919L244.569 48.164ZM252.507 22.622L248.673 33.854H256.341L252.507 22.622ZM305.297 13.658C305.837 12.686 306.611 12.2 307.619 12.2H317.501C317.897 12.2 318.239 12.344 318.527 12.632C318.815 12.92 318.959 13.262 318.959 13.658V48.542C318.959 48.938 318.815 49.28 318.527 49.568C318.239 49.856 317.897 50 317.501 50H307.727C307.331 50 306.989 49.856 306.701 49.568C306.413 49.28 306.269 48.938 306.269 48.542V31.802L302.327 39.578C302.219 39.83 301.967 40.118 301.571 40.442C301.175 40.766 300.671 40.928 300.059 40.928H296.387C295.775 40.928 295.271 40.766 294.875 40.442C294.479 40.118 294.227 39.83 294.119 39.578L290.177 31.802V48.542C290.177 48.938 290.033 49.28 289.745 49.568C289.457 49.856 289.115 50 288.719 50H278.945C278.549 50 278.207 49.856 277.919 49.568C277.631 49.28 277.487 48.938 277.487 48.542V13.658C277.487 13.262 277.631 12.92 277.919 12.632C278.207 12.344 278.549 12.2 278.945 12.2H288.827C289.835 12.2 290.609 12.686 291.149 13.658L298.223 26.618L305.297 13.658Z"/></svg>